<svg xmlns="http://www.w3.org/2000/svg" xmlns:xlink="http://www.w3.org/1999/xlink" width="1000" zoomAndPan="magnify" viewBox="0 0 750 225" height="300" preserveAspectRatio="xMidYMid meet" version="1.0"><defs><g/><clipPath id="789f5309b5"><path d="M 226.730469 6.769531 L 242.480469 6.769531 L 242.480469 22.519531 L 226.730469 22.519531 Z M 226.730469 6.769531 " clip-rule="nonzero"/></clipPath></defs><g fill="#ffffff" fill-opacity="1"><g transform="translate(59.721605, 107.281281)"><g><path d="M 44.890625 -2.15625 C 49.128906 -2.414062 52.304688 -4.113281 54.421875 -7.25 C 56.546875 -10.382812 57.484375 -14.429688 57.234375 -19.390625 C 56.984375 -24.359375 55.285156 -29.550781 52.140625 -34.96875 C 52.234375 -35.144531 52.34375 -35.316406 52.46875 -35.484375 C 52.59375 -35.648438 52.695312 -35.863281 52.78125 -36.125 C 55.5 -35.78125 58.488281 -35.25 61.75 -34.53125 C 65.007812 -33.8125 68.144531 -33.046875 71.15625 -32.234375 C 74.164062 -31.429688 76.644531 -30.734375 78.59375 -30.140625 C 80.550781 -29.546875 81.53125 -29.25 81.53125 -29.25 C 81.445312 -23.570312 80.066406 -18.503906 77.390625 -14.046875 C 74.722656 -9.597656 70.71875 -6.125 65.375 -3.625 C 60.03125 -1.125 53.289062 0.125 45.15625 0.125 C 37.519531 0.125 30.835938 -1.269531 25.109375 -4.0625 C 19.390625 -6.863281 14.6875 -10.59375 11 -15.25 C 7.3125 -19.914062 4.597656 -25.109375 2.859375 -30.828125 C 1.117188 -36.554688 0.378906 -42.390625 0.640625 -48.328125 C 0.972656 -56.210938 2.878906 -63.269531 6.359375 -69.5 C 9.835938 -75.738281 14.4375 -80.828125 20.15625 -84.765625 C 25.882812 -88.710938 32.304688 -91.191406 39.421875 -92.203125 C 46.546875 -93.222656 53.96875 -92.503906 61.6875 -90.046875 C 68.300781 -87.835938 73.238281 -84.316406 76.5 -79.484375 C 79.769531 -74.660156 81.445312 -69.066406 81.53125 -62.703125 C 81.53125 -62.703125 80.597656 -62.425781 78.734375 -61.875 C 76.867188 -61.320312 74.492188 -60.644531 71.609375 -59.84375 C 68.722656 -59.039062 65.664062 -58.273438 62.4375 -57.546875 C 59.21875 -56.828125 56.253906 -56.300781 53.546875 -55.96875 C 53.296875 -56.382812 53.125 -56.71875 53.03125 -56.96875 C 52.945312 -57.226562 52.820312 -57.53125 52.65625 -57.875 C 55.539062 -63.300781 57.066406 -68.429688 57.234375 -73.265625 C 57.398438 -78.097656 56.421875 -82.082031 54.296875 -85.21875 C 52.179688 -88.351562 49.046875 -90.003906 44.890625 -90.171875 C 41.835938 -90.347656 39.164062 -89.269531 36.875 -86.9375 C 34.59375 -84.601562 32.664062 -81.378906 31.09375 -77.265625 C 29.53125 -73.148438 28.34375 -68.503906 27.53125 -63.328125 C 26.726562 -58.160156 26.285156 -52.863281 26.203125 -47.4375 C 26.117188 -41.757812 26.457031 -36.1875 27.21875 -30.71875 C 27.976562 -25.25 29.140625 -20.328125 30.703125 -15.953125 C 32.273438 -11.585938 34.25 -8.15625 36.625 -5.65625 C 39 -3.15625 41.753906 -1.988281 44.890625 -2.15625 Z M 44.890625 -2.15625 "/></g></g></g><g fill="#ffffff" fill-opacity="1"><g transform="translate(140.101486, 107.281281)"><g><path d="M 69.703125 -5.84375 L 75.671875 -1.78125 L 75.671875 0.125 C 75.671875 0.125 74.207031 0.101562 71.28125 0.0625 C 68.363281 0.0195312 64.148438 0 58.640625 0 C 53.117188 0 48.851562 0.0195312 45.84375 0.0625 C 42.832031 0.101562 41.328125 0.125 41.328125 0.125 L 41.203125 -1.78125 L 47.953125 -5.84375 C 47.953125 -7.625 47.953125 -10.125 47.953125 -13.34375 C 47.953125 -16.570312 47.972656 -20.15625 48.015625 -24.09375 C 48.054688 -28.039062 48.054688 -32.070312 48.015625 -36.1875 C 47.972656 -40.300781 47.929688 -44.113281 47.890625 -47.625 C 47.847656 -51.144531 47.78125 -54.09375 47.6875 -56.46875 C 47.601562 -58.84375 47.476562 -60.285156 47.3125 -60.796875 C 46.800781 -62.234375 45.695312 -63.269531 44 -63.90625 C 42.3125 -64.539062 40.445312 -64.734375 38.40625 -64.484375 C 36.375 -64.234375 34.507812 -63.515625 32.8125 -62.328125 C 31.113281 -61.140625 30.007812 -59.484375 29.5 -57.359375 C 29.5 -51.253906 29.5 -45.171875 29.5 -39.109375 C 29.5 -33.046875 29.5 -27.488281 29.5 -22.4375 C 29.5 -17.394531 29.5 -13.367188 29.5 -10.359375 C 29.5 -7.347656 29.5 -5.84375 29.5 -5.84375 L 35.484375 -1.78125 L 35.484375 0.125 C 35.484375 0.125 34.039062 0.101562 31.15625 0.0625 C 28.28125 0.0195312 24.082031 0 18.5625 0 C 13.050781 0 8.789062 0.0195312 5.78125 0.0625 C 2.769531 0.101562 1.265625 0.125 1.265625 0.125 L 1.140625 -1.78125 L 7.890625 -5.84375 L 7.890625 -93.359375 L 2.03125 -97.296875 L 2.03125 -99.078125 C 2.03125 -99.078125 2.960938 -99.097656 4.828125 -99.140625 C 6.691406 -99.179688 8.914062 -99.203125 11.5 -99.203125 C 14.09375 -99.203125 16.445312 -99.203125 18.5625 -99.203125 C 19.84375 -99.203125 21.050781 -99.203125 22.1875 -99.203125 C 23.332031 -99.203125 24.332031 -99.203125 25.1875 -99.203125 C 26.539062 -99.117188 27.617188 -98.71875 28.421875 -98 C 29.234375 -97.28125 29.59375 -96.195312 29.5 -94.75 C 29.5 -94.332031 29.5 -92.550781 29.5 -89.40625 C 29.5 -86.269531 29.5 -82.304688 29.5 -77.515625 C 29.5 -72.722656 29.5 -67.488281 29.5 -61.8125 C 31.03125 -64.269531 33.238281 -66.300781 36.125 -67.90625 C 39.007812 -69.519531 42.144531 -70.625 45.53125 -71.21875 C 48.925781 -71.8125 52.234375 -71.8125 55.453125 -71.21875 C 58.671875 -70.625 61.488281 -69.394531 63.90625 -67.53125 C 66.320312 -65.664062 67.914062 -63.039062 68.6875 -59.65625 C 68.9375 -58.550781 69.125 -57.445312 69.25 -56.34375 C 69.375 -55.238281 69.476562 -53.664062 69.5625 -51.625 C 69.65625 -49.59375 69.703125 -46.753906 69.703125 -43.109375 C 69.703125 -39.460938 69.703125 -34.648438 69.703125 -28.671875 C 69.703125 -22.703125 69.703125 -15.09375 69.703125 -5.84375 Z M 69.703125 -5.84375 "/></g></g></g><g fill="#ffffff" fill-opacity="1"><g transform="translate(213.48627, 107.281281)"><g><path d="M 32.8125 -5.84375 L 38.671875 -1.78125 L 38.671875 0.125 C 33.066406 0.0390625 27.378906 0 21.609375 0 C 15.847656 0 10.085938 0 4.328125 0 L 4.328125 -1.78125 L 11.0625 -5.84375 L 11.0625 -66.640625 L 5.21875 -70.46875 L 5.21875 -72.375 C 5.21875 -72.375 5.9375 -72.375 7.375 -72.375 C 8.8125 -72.375 10.632812 -72.375 12.84375 -72.375 C 15.050781 -72.375 17.273438 -72.375 19.515625 -72.375 C 21.765625 -72.375 23.738281 -72.375 25.4375 -72.375 C 27.132812 -72.375 28.148438 -72.375 28.484375 -72.375 C 29.753906 -72.375 30.789062 -72.007812 31.59375 -71.28125 C 32.40625 -70.5625 32.769531 -69.484375 32.6875 -68.046875 C 32.6875 -67.878906 32.6875 -66.628906 32.6875 -64.296875 C 32.6875 -61.960938 32.6875 -58.953125 32.6875 -55.265625 C 32.6875 -51.578125 32.6875 -47.523438 32.6875 -43.109375 C 32.6875 -38.703125 32.707031 -34.316406 32.75 -29.953125 C 32.789062 -25.585938 32.8125 -21.582031 32.8125 -17.9375 C 32.8125 -14.289062 32.8125 -11.363281 32.8125 -9.15625 C 32.8125 -6.945312 32.8125 -5.84375 32.8125 -5.84375 Z M 31.546875 -96.65625 C 31.546875 -93.945312 30.585938 -91.640625 28.671875 -89.734375 C 26.765625 -87.828125 24.457031 -86.875 21.75 -86.875 C 19.125 -86.875 16.851562 -87.828125 14.9375 -89.734375 C 13.03125 -91.640625 12.078125 -93.945312 12.078125 -96.65625 C 12.078125 -99.375 13.03125 -101.664062 14.9375 -103.53125 C 16.851562 -105.394531 19.125 -106.328125 21.75 -106.328125 C 24.457031 -106.328125 26.765625 -105.394531 28.671875 -103.53125 C 30.585938 -101.664062 31.546875 -99.375 31.546875 -96.65625 Z M 31.546875 -96.65625 "/></g></g></g><g fill="#ffffff" fill-opacity="1"><g transform="translate(252.02276, 107.281281)"><g><path d="M 68.421875 -5.84375 L 74.40625 -1.78125 L 74.40625 0.125 L 40.1875 0.125 L 40.0625 -1.78125 L 46.8125 -5.84375 C 46.8125 -7.625 46.8125 -10.125 46.8125 -13.34375 C 46.8125 -16.570312 46.832031 -20.15625 46.875 -24.09375 C 46.914062 -28.039062 46.914062 -32.070312 46.875 -36.1875 C 46.832031 -40.300781 46.785156 -44.113281 46.734375 -47.625 C 46.691406 -51.144531 46.628906 -54.09375 46.546875 -56.46875 C 46.460938 -58.84375 46.335938 -60.285156 46.171875 -60.796875 C 45.660156 -62.234375 44.554688 -63.269531 42.859375 -63.90625 C 41.160156 -64.539062 39.296875 -64.734375 37.265625 -64.484375 C 35.234375 -64.234375 33.390625 -63.535156 31.734375 -62.390625 C 30.078125 -61.242188 28.953125 -59.648438 28.359375 -57.609375 C 28.359375 -53.796875 28.359375 -49.597656 28.359375 -45.015625 C 28.359375 -40.441406 28.359375 -35.84375 28.359375 -31.21875 C 28.359375 -26.601562 28.359375 -22.382812 28.359375 -18.5625 C 28.359375 -14.75 28.359375 -11.675781 28.359375 -9.34375 C 28.359375 -7.007812 28.359375 -5.84375 28.359375 -5.84375 L 34.34375 -1.78125 L 34.34375 0.125 L 0.125 0.125 L 0 -1.78125 L 6.734375 -5.84375 L 6.734375 -66.90625 L 0.890625 -70.71875 L 0.890625 -72.625 C 0.890625 -72.625 1.609375 -72.625 3.046875 -72.625 C 4.492188 -72.625 6.316406 -72.625 8.515625 -72.625 C 10.722656 -72.625 12.945312 -72.625 15.1875 -72.625 C 17.4375 -72.625 19.390625 -72.625 21.046875 -72.625 C 22.703125 -72.625 23.695312 -72.625 24.03125 -72.625 C 25.394531 -72.625 26.476562 -72.265625 27.28125 -71.546875 C 28.082031 -70.828125 28.441406 -69.742188 28.359375 -68.296875 C 28.359375 -68.210938 28.359375 -67.765625 28.359375 -66.953125 C 28.359375 -66.148438 28.359375 -64.476562 28.359375 -61.9375 C 30.648438 -65.582031 33.640625 -68.082031 37.328125 -69.4375 C 41.015625 -70.800781 45.019531 -71.484375 49.34375 -71.484375 C 54.769531 -71.484375 58.835938 -70.71875 61.546875 -69.1875 C 64.265625 -67.664062 66.085938 -65.566406 67.015625 -62.890625 C 67.953125 -60.222656 68.421875 -57.171875 68.421875 -53.734375 C 68.421875 -50.296875 68.421875 -46.710938 68.421875 -42.984375 C 68.503906 -39.335938 68.523438 -34.523438 68.484375 -28.546875 C 68.441406 -22.578125 68.421875 -15.007812 68.421875 -5.84375 Z M 68.421875 -5.84375 "/></g></g></g><g fill="#ffffff" fill-opacity="1"><g transform="translate(324.517256, 107.281281)"><g><path d="M 65.125 -50.875 C 65.125 -50.53125 65.015625 -50.101562 64.796875 -49.59375 C 64.585938 -49.09375 64.269531 -48.753906 63.84375 -48.578125 C 63.164062 -48.410156 61.742188 -47.753906 59.578125 -46.609375 C 57.421875 -45.460938 54.816406 -44.0625 51.765625 -42.40625 C 48.710938 -40.757812 45.59375 -39.085938 42.40625 -37.390625 C 39.226562 -35.691406 36.238281 -34.207031 33.4375 -32.9375 C 30.644531 -31.664062 28.445312 -30.816406 26.84375 -30.390625 C 27.769531 -24.960938 29.609375 -20.9375 32.359375 -18.3125 C 35.117188 -15.6875 38.238281 -14.242188 41.71875 -13.984375 C 45.195312 -13.734375 48.585938 -14.410156 51.890625 -16.015625 C 55.203125 -17.628906 57.914062 -19.921875 60.03125 -22.890625 L 61.5625 -22.25 C 59.78125 -16.238281 57.109375 -11.472656 53.546875 -7.953125 C 49.984375 -4.429688 45.972656 -2.078125 41.515625 -0.890625 C 37.066406 0.296875 32.597656 0.40625 28.109375 -0.5625 C 23.617188 -1.539062 19.441406 -3.554688 15.578125 -6.609375 C 11.722656 -9.660156 8.609375 -13.664062 6.234375 -18.625 C 3.859375 -23.59375 2.671875 -29.425781 2.671875 -36.125 C 2.671875 -43.15625 3.769531 -49.128906 5.96875 -54.046875 C 8.175781 -58.972656 11.019531 -62.875 14.5 -65.75 C 18.144531 -68.894531 22.171875 -71.054688 26.578125 -72.234375 C 30.992188 -73.421875 35.382812 -73.78125 39.75 -73.3125 C 44.113281 -72.851562 48.160156 -71.644531 51.890625 -69.6875 C 55.617188 -67.738281 58.671875 -65.175781 61.046875 -62 C 63.421875 -58.820312 64.78125 -55.113281 65.125 -50.875 Z M 50.109375 -63.46875 C 50.617188 -65.25 50.40625 -66.734375 49.46875 -67.921875 C 48.539062 -69.109375 47.1875 -69.890625 45.40625 -70.265625 C 43.625 -70.648438 41.734375 -70.566406 39.734375 -70.015625 C 37.742188 -69.460938 35.988281 -68.335938 34.46875 -66.640625 C 32.257812 -64.179688 30.328125 -60.578125 28.671875 -55.828125 C 27.023438 -51.085938 26.203125 -45.15625 26.203125 -38.03125 C 26.203125 -37.269531 26.222656 -36.503906 26.265625 -35.734375 C 26.304688 -34.972656 26.367188 -34.253906 26.453125 -33.578125 C 34.503906 -41.628906 40.269531 -48.007812 43.75 -52.71875 C 47.226562 -57.425781 49.347656 -61.007812 50.109375 -63.46875 Z M 50.109375 -63.46875 "/></g></g></g><g fill="#ffffff" fill-opacity="1"><g transform="translate(388.23608, 107.281281)"><g><path d="M 52.40625 -67.28125 C 52.320312 -67.113281 51.726562 -65.78125 50.625 -63.28125 C 49.519531 -60.78125 48.078125 -57.578125 46.296875 -53.671875 C 44.515625 -49.773438 42.5625 -45.515625 40.4375 -40.890625 C 38.320312 -36.265625 36.222656 -31.640625 34.140625 -27.015625 C 32.066406 -22.398438 30.160156 -18.1875 28.421875 -14.375 C 26.679688 -10.5625 25.28125 -7.488281 24.21875 -5.15625 C 23.164062 -2.820312 22.640625 -1.65625 22.640625 -1.65625 C 26.878906 -1.65625 31.140625 -2.457031 35.421875 -4.0625 C 39.703125 -5.675781 43.113281 -8.390625 45.65625 -12.203125 C 46.84375 -13.984375 47.773438 -16.125 48.453125 -18.625 C 49.128906 -21.132812 49.597656 -24 49.859375 -27.21875 L 51.640625 -27.21875 C 51.640625 -25.519531 51.660156 -23.289062 51.703125 -20.53125 C 51.742188 -17.78125 51.804688 -14.960938 51.890625 -12.078125 C 51.972656 -9.203125 52.035156 -6.660156 52.078125 -4.453125 C 52.117188 -2.242188 52.1875 -0.757812 52.28125 0 C 51.59375 0 49.9375 0 47.3125 0 C 44.6875 0 41.503906 0 37.765625 0 C 34.035156 0 30.15625 0 26.125 0 C 22.101562 0 18.289062 0.0195312 14.6875 0.0625 C 11.082031 0.101562 8.132812 0.125 5.84375 0.125 C 4.914062 0.125 4.15625 -0.171875 3.5625 -0.765625 C 2.96875 -1.359375 3.007812 -2.457031 3.6875 -4.0625 C 3.851562 -4.488281 4.550781 -6.015625 5.78125 -8.640625 C 7.007812 -11.273438 8.578125 -14.582031 10.484375 -18.5625 C 12.398438 -22.550781 14.457031 -26.875 16.65625 -31.53125 C 18.863281 -36.195312 21.046875 -40.820312 23.203125 -45.40625 C 25.367188 -49.988281 27.34375 -54.1875 29.125 -58 C 30.90625 -61.8125 32.347656 -64.863281 33.453125 -67.15625 C 34.554688 -69.445312 35.109375 -70.59375 35.109375 -70.59375 C 34.003906 -70.59375 32.5 -70.503906 30.59375 -70.328125 C 28.6875 -70.160156 26.648438 -69.84375 24.484375 -69.375 C 22.316406 -68.914062 20.34375 -68.257812 18.5625 -67.40625 C 16.695312 -66.5625 14.851562 -65.25 13.03125 -63.46875 C 11.207031 -61.6875 9.640625 -59.289062 8.328125 -56.28125 C 7.015625 -53.269531 6.144531 -49.472656 5.71875 -44.890625 L 3.9375 -44.890625 C 3.9375 -46.585938 3.914062 -48.941406 3.875 -51.953125 C 3.832031 -54.960938 3.769531 -58.015625 3.6875 -61.109375 C 3.601562 -64.203125 3.539062 -66.832031 3.5 -69 C 3.457031 -71.164062 3.4375 -72.25 3.4375 -72.25 C 3.4375 -72.25 4.515625 -72.25 6.671875 -72.25 C 8.835938 -72.25 11.65625 -72.25 15.125 -72.25 C 18.601562 -72.25 22.289062 -72.269531 26.1875 -72.3125 C 30.09375 -72.351562 33.828125 -72.375 37.390625 -72.375 C 40.953125 -72.375 43.960938 -72.375 46.421875 -72.375 C 48.878906 -72.375 50.28125 -72.375 50.625 -72.375 C 51.8125 -72.289062 52.488281 -71.609375 52.65625 -70.328125 C 52.820312 -69.054688 52.738281 -68.039062 52.40625 -67.28125 Z M 52.40625 -67.28125 "/></g></g></g><g fill="#ffffff" fill-opacity="1"><g transform="translate(438.600632, 107.281281)"><g><path d="M 65.125 -50.875 C 65.125 -50.53125 65.015625 -50.101562 64.796875 -49.59375 C 64.585938 -49.09375 64.269531 -48.753906 63.84375 -48.578125 C 63.164062 -48.410156 61.742188 -47.753906 59.578125 -46.609375 C 57.421875 -45.460938 54.816406 -44.0625 51.765625 -42.40625 C 48.710938 -40.757812 45.59375 -39.085938 42.40625 -37.390625 C 39.226562 -35.691406 36.238281 -34.207031 33.4375 -32.9375 C 30.644531 -31.664062 28.445312 -30.816406 26.84375 -30.390625 C 27.769531 -24.960938 29.609375 -20.9375 32.359375 -18.3125 C 35.117188 -15.6875 38.238281 -14.242188 41.71875 -13.984375 C 45.195312 -13.734375 48.585938 -14.410156 51.890625 -16.015625 C 55.203125 -17.628906 57.914062 -19.921875 60.03125 -22.890625 L 61.5625 -22.25 C 59.78125 -16.238281 57.109375 -11.472656 53.546875 -7.953125 C 49.984375 -4.429688 45.972656 -2.078125 41.515625 -0.890625 C 37.066406 0.296875 32.597656 0.40625 28.109375 -0.5625 C 23.617188 -1.539062 19.441406 -3.554688 15.578125 -6.609375 C 11.722656 -9.660156 8.609375 -13.664062 6.234375 -18.625 C 3.859375 -23.59375 2.671875 -29.425781 2.671875 -36.125 C 2.671875 -43.15625 3.769531 -49.128906 5.96875 -54.046875 C 8.175781 -58.972656 11.019531 -62.875 14.5 -65.75 C 18.144531 -68.894531 22.171875 -71.054688 26.578125 -72.234375 C 30.992188 -73.421875 35.382812 -73.78125 39.75 -73.3125 C 44.113281 -72.851562 48.160156 -71.644531 51.890625 -69.6875 C 55.617188 -67.738281 58.671875 -65.175781 61.046875 -62 C 63.421875 -58.820312 64.78125 -55.113281 65.125 -50.875 Z M 50.109375 -63.46875 C 50.617188 -65.25 50.40625 -66.734375 49.46875 -67.921875 C 48.539062 -69.109375 47.1875 -69.890625 45.40625 -70.265625 C 43.625 -70.648438 41.734375 -70.566406 39.734375 -70.015625 C 37.742188 -69.460938 35.988281 -68.335938 34.46875 -66.640625 C 32.257812 -64.179688 30.328125 -60.578125 28.671875 -55.828125 C 27.023438 -51.085938 26.203125 -45.15625 26.203125 -38.03125 C 26.203125 -37.269531 26.222656 -36.503906 26.265625 -35.734375 C 26.304688 -34.972656 26.367188 -34.253906 26.453125 -33.578125 C 34.503906 -41.628906 40.269531 -48.007812 43.75 -52.71875 C 47.226562 -57.425781 49.347656 -61.007812 50.109375 -63.46875 Z M 50.109375 -63.46875 "/></g></g></g><g clip-path="url(#789f5309b5)"><path fill="#2b2b2b" d="M 242.453125 14.628906 C 236.558594 15.714844 235.675781 16.597656 234.589844 22.492188 C 233.507812 16.597656 232.625 15.714844 226.730469 14.628906 C 232.625 13.546875 233.507812 12.664062 234.589844 6.769531 C 235.675781 12.664062 236.558594 13.546875 242.453125 14.628906 Z M 242.453125 14.628906 " fill-opacity="1" fill-rule="nonzero"/></g><g fill="#ffffff" fill-opacity="1"><g transform="translate(58.506634, 203.14257)"><g><path d="M 88.78125 -47.0625 C 88.78125 -39.257812 87.460938 -32.453125 84.828125 -26.640625 C 82.203125 -20.835938 78.769531 -15.984375 74.53125 -12.078125 C 70.289062 -8.179688 65.625 -5.234375 60.53125 -3.234375 C 55.445312 -1.242188 50.488281 -0.164062 45.65625 0 C 42.601562 0.0820312 39.171875 -0.316406 35.359375 -1.203125 C 31.546875 -2.097656 27.726562 -3.625 23.90625 -5.78125 C 20.09375 -7.945312 16.570312 -10.8125 13.34375 -14.375 C 10.125 -17.9375 7.519531 -22.28125 5.53125 -27.40625 C 3.539062 -32.539062 2.546875 -38.582031 2.546875 -45.53125 C 2.546875 -53.164062 3.753906 -59.84375 6.171875 -65.5625 C 8.585938 -71.289062 11.847656 -76.101562 15.953125 -80 C 20.066406 -83.894531 24.6875 -86.835938 29.8125 -88.828125 C 34.945312 -90.828125 40.226562 -91.890625 45.65625 -92.015625 C 51.082031 -92.140625 56.359375 -91.289062 61.484375 -89.46875 C 66.617188 -87.644531 71.242188 -84.867188 75.359375 -81.140625 C 79.472656 -77.410156 82.738281 -72.703125 85.15625 -67.015625 C 87.570312 -61.335938 88.78125 -54.6875 88.78125 -47.0625 Z M 27.734375 -46.046875 C 27.734375 -40.785156 28.175781 -35.585938 29.0625 -30.453125 C 29.945312 -25.328125 31.21875 -20.664062 32.875 -16.46875 C 34.53125 -12.269531 36.457031 -8.898438 38.65625 -6.359375 C 40.863281 -3.816406 43.238281 -2.503906 45.78125 -2.421875 C 48.238281 -2.335938 50.847656 -3.90625 53.609375 -7.125 C 56.367188 -10.34375 58.742188 -15.238281 60.734375 -21.8125 C 62.722656 -28.382812 63.71875 -36.628906 63.71875 -46.546875 C 63.71875 -55.785156 62.828125 -63.609375 61.046875 -70.015625 C 59.265625 -76.421875 56.953125 -81.296875 54.109375 -84.640625 C 51.273438 -87.992188 48.332031 -89.671875 45.28125 -89.671875 C 42.394531 -89.671875 39.59375 -88.035156 36.875 -84.765625 C 34.164062 -81.503906 31.960938 -76.648438 30.265625 -70.203125 C 28.578125 -63.765625 27.734375 -55.710938 27.734375 -46.046875 Z M 27.734375 -46.046875 "/></g></g></g><g fill="#ffffff" fill-opacity="1"><g transform="translate(146.517526, 203.14257)"><g><path d="M 68.421875 -5.84375 L 74.40625 -1.78125 L 74.40625 0.125 L 40.1875 0.125 L 40.0625 -1.78125 L 46.8125 -5.84375 C 46.8125 -7.625 46.8125 -10.125 46.8125 -13.34375 C 46.8125 -16.570312 46.832031 -20.15625 46.875 -24.09375 C 46.914062 -28.039062 46.914062 -32.070312 46.875 -36.1875 C 46.832031 -40.300781 46.785156 -44.113281 46.734375 -47.625 C 46.691406 -51.144531 46.628906 -54.09375 46.546875 -56.46875 C 46.460938 -58.84375 46.335938 -60.285156 46.171875 -60.796875 C 45.660156 -62.234375 44.554688 -63.269531 42.859375 -63.90625 C 41.160156 -64.539062 39.296875 -64.734375 37.265625 -64.484375 C 35.234375 -64.234375 33.390625 -63.535156 31.734375 -62.390625 C 30.078125 -61.242188 28.953125 -59.648438 28.359375 -57.609375 C 28.359375 -53.796875 28.359375 -49.597656 28.359375 -45.015625 C 28.359375 -40.441406 28.359375 -35.84375 28.359375 -31.21875 C 28.359375 -26.601562 28.359375 -22.382812 28.359375 -18.5625 C 28.359375 -14.75 28.359375 -11.675781 28.359375 -9.34375 C 28.359375 -7.007812 28.359375 -5.84375 28.359375 -5.84375 L 34.34375 -1.78125 L 34.34375 0.125 L 0.125 0.125 L 0 -1.78125 L 6.734375 -5.84375 L 6.734375 -66.90625 L 0.890625 -70.71875 L 0.890625 -72.625 C 0.890625 -72.625 1.609375 -72.625 3.046875 -72.625 C 4.492188 -72.625 6.316406 -72.625 8.515625 -72.625 C 10.722656 -72.625 12.945312 -72.625 15.1875 -72.625 C 17.4375 -72.625 19.390625 -72.625 21.046875 -72.625 C 22.703125 -72.625 23.695312 -72.625 24.03125 -72.625 C 25.394531 -72.625 26.476562 -72.265625 27.28125 -71.546875 C 28.082031 -70.828125 28.441406 -69.742188 28.359375 -68.296875 C 28.359375 -68.210938 28.359375 -67.765625 28.359375 -66.953125 C 28.359375 -66.148438 28.359375 -64.476562 28.359375 -61.9375 C 30.648438 -65.582031 33.640625 -68.082031 37.328125 -69.4375 C 41.015625 -70.800781 45.019531 -71.484375 49.34375 -71.484375 C 54.769531 -71.484375 58.835938 -70.71875 61.546875 -69.1875 C 64.265625 -67.664062 66.085938 -65.566406 67.015625 -62.890625 C 67.953125 -60.222656 68.421875 -57.171875 68.421875 -53.734375 C 68.421875 -50.296875 68.421875 -46.710938 68.421875 -42.984375 C 68.503906 -39.335938 68.523438 -34.523438 68.484375 -28.546875 C 68.441406 -22.578125 68.421875 -15.007812 68.421875 -5.84375 Z M 68.421875 -5.84375 "/></g></g></g><g fill="#ffffff" fill-opacity="1"><g transform="translate(219.012028, 203.14257)"><g><path d="M 35.734375 -70.71875 C 47.097656 -70.71875 55.085938 -67.6875 59.703125 -61.625 C 64.328125 -55.5625 66.640625 -46.847656 66.640625 -35.484375 C 66.640625 -28.109375 65.664062 -21.789062 63.71875 -16.53125 C 61.769531 -11.28125 58.546875 -7.253906 54.046875 -4.453125 C 49.554688 -1.648438 43.453125 -0.25 35.734375 -0.25 C 25.648438 -0.25 17.9375 -3.003906 12.59375 -8.515625 C 7.25 -14.023438 4.617188 -23.269531 4.703125 -36.25 C 4.867188 -47.53125 7.328125 -56.09375 12.078125 -61.9375 C 16.828125 -67.789062 24.710938 -70.71875 35.734375 -70.71875 Z M 35.734375 -68.171875 C 34.046875 -68.171875 32.648438 -67.28125 31.546875 -65.5 C 30.441406 -63.71875 29.550781 -61.425781 28.875 -58.625 C 28.195312 -55.832031 27.707031 -52.867188 27.40625 -49.734375 C 27.113281 -46.597656 26.945312 -43.628906 26.90625 -40.828125 C 26.863281 -38.023438 26.84375 -35.78125 26.84375 -34.09375 C 26.84375 -32.476562 26.882812 -30.375 26.96875 -27.78125 C 27.050781 -25.195312 27.257812 -22.460938 27.59375 -19.578125 C 27.9375 -16.703125 28.425781 -13.988281 29.0625 -11.4375 C 29.695312 -8.894531 30.566406 -6.816406 31.671875 -5.203125 C 32.773438 -3.597656 34.128906 -2.796875 35.734375 -2.796875 C 37.429688 -2.796875 38.8125 -3.644531 39.875 -5.34375 C 40.9375 -7.039062 41.804688 -9.222656 42.484375 -11.890625 C 43.160156 -14.554688 43.664062 -17.394531 44 -20.40625 C 44.34375 -23.414062 44.554688 -26.273438 44.640625 -28.984375 C 44.722656 -31.703125 44.765625 -33.867188 44.765625 -35.484375 C 44.765625 -37.097656 44.722656 -39.257812 44.640625 -41.96875 C 44.554688 -44.6875 44.34375 -47.550781 44 -50.5625 C 43.664062 -53.570312 43.160156 -56.410156 42.484375 -59.078125 C 41.804688 -61.742188 40.9375 -63.925781 39.875 -65.625 C 38.8125 -67.320312 37.429688 -68.171875 35.734375 -68.171875 Z M 35.734375 -68.171875 "/></g></g></g><g fill="#ffffff" fill-opacity="1"><g transform="translate(283.748323, 203.14257)"><g><path d="M 68.421875 -5.84375 L 74.40625 -1.78125 L 74.40625 0.125 L 40.1875 0.125 L 40.0625 -1.78125 L 46.8125 -5.84375 C 46.8125 -7.625 46.8125 -10.125 46.8125 -13.34375 C 46.8125 -16.570312 46.832031 -20.15625 46.875 -24.09375 C 46.914062 -28.039062 46.914062 -32.070312 46.875 -36.1875 C 46.832031 -40.300781 46.785156 -44.113281 46.734375 -47.625 C 46.691406 -51.144531 46.628906 -54.09375 46.546875 -56.46875 C 46.460938 -58.84375 46.335938 -60.285156 46.171875 -60.796875 C 45.660156 -62.234375 44.554688 -63.269531 42.859375 -63.90625 C 41.160156 -64.539062 39.296875 -64.734375 37.265625 -64.484375 C 35.234375 -64.234375 33.390625 -63.535156 31.734375 -62.390625 C 30.078125 -61.242188 28.953125 -59.648438 28.359375 -57.609375 C 28.359375 -53.796875 28.359375 -49.597656 28.359375 -45.015625 C 28.359375 -40.441406 28.359375 -35.84375 28.359375 -31.21875 C 28.359375 -26.601562 28.359375 -22.382812 28.359375 -18.5625 C 28.359375 -14.75 28.359375 -11.675781 28.359375 -9.34375 C 28.359375 -7.007812 28.359375 -5.84375 28.359375 -5.84375 L 34.34375 -1.78125 L 34.34375 0.125 L 0.125 0.125 L 0 -1.78125 L 6.734375 -5.84375 L 6.734375 -66.90625 L 0.890625 -70.71875 L 0.890625 -72.625 C 0.890625 -72.625 1.609375 -72.625 3.046875 -72.625 C 4.492188 -72.625 6.316406 -72.625 8.515625 -72.625 C 10.722656 -72.625 12.945312 -72.625 15.1875 -72.625 C 17.4375 -72.625 19.390625 -72.625 21.046875 -72.625 C 22.703125 -72.625 23.695312 -72.625 24.03125 -72.625 C 25.394531 -72.625 26.476562 -72.265625 27.28125 -71.546875 C 28.082031 -70.828125 28.441406 -69.742188 28.359375 -68.296875 C 28.359375 -68.210938 28.359375 -67.765625 28.359375 -66.953125 C 28.359375 -66.148438 28.359375 -64.476562 28.359375 -61.9375 C 30.648438 -65.582031 33.640625 -68.082031 37.328125 -69.4375 C 41.015625 -70.800781 45.019531 -71.484375 49.34375 -71.484375 C 54.769531 -71.484375 58.835938 -70.71875 61.546875 -69.1875 C 64.265625 -67.664062 66.085938 -65.566406 67.015625 -62.890625 C 67.953125 -60.222656 68.421875 -57.171875 68.421875 -53.734375 C 68.421875 -50.296875 68.421875 -46.710938 68.421875 -42.984375 C 68.503906 -39.335938 68.523438 -34.523438 68.484375 -28.546875 C 68.441406 -22.578125 68.421875 -15.007812 68.421875 -5.84375 Z M 68.421875 -5.84375 "/></g></g></g><g fill="#ffffff" fill-opacity="1"><g transform="translate(356.242819, 203.14257)"><g><path d="M 52.140625 -72.5 L 80.890625 -72.5 L 80.890625 -70.71875 C 79.023438 -69.957031 77.09375 -68.113281 75.09375 -65.1875 C 73.101562 -62.257812 71.15625 -58.65625 69.25 -54.375 C 67.34375 -50.09375 65.539062 -45.535156 63.84375 -40.703125 C 62.40625 -36.378906 61.003906 -32.078125 59.640625 -27.796875 C 58.285156 -23.515625 56.765625 -18.828125 55.078125 -13.734375 C 53.460938 -8.898438 52.101562 -4.9375 51 -1.84375 C 49.894531 1.25 48.894531 3.851562 48 5.96875 C 47.113281 8.09375 46.125 10.128906 45.03125 12.078125 C 42.820312 15.984375 40.378906 18.992188 37.703125 21.109375 C 35.035156 23.234375 31.457031 23.867188 26.96875 23.015625 C 23.0625 22.253906 19.769531 20.410156 17.09375 17.484375 C 14.425781 14.554688 13.09375 10.425781 13.09375 5.09375 C 13.09375 4.832031 13.195312 4.507812 13.40625 4.125 C 13.625 3.75 13.90625 3.519531 14.25 3.4375 C 15.34375 3.175781 16.84375 2.851562 18.75 2.46875 C 20.664062 2.09375 22.679688 1.691406 24.796875 1.265625 C 26.921875 0.847656 28.703125 0.550781 30.140625 0.375 C 30.566406 0.289062 30.863281 0.394531 31.03125 0.6875 C 31.195312 0.988281 31.195312 1.269531 31.03125 1.53125 C 28.738281 4.914062 27.253906 8.15625 26.578125 11.25 C 25.898438 14.34375 26.023438 16.800781 26.953125 18.625 C 27.890625 20.457031 29.585938 21.242188 32.046875 20.984375 C 34.335938 20.734375 36.4375 19.648438 38.34375 17.734375 C 40.25 15.828125 41.773438 13.429688 42.921875 10.546875 C 44.066406 7.671875 44.617188 4.640625 44.578125 1.453125 C 44.535156 -1.722656 43.664062 -4.707031 41.96875 -7.5 L 9.671875 -66.640625 L 0.765625 -70.59375 L 0.765625 -72.375 L 39.421875 -72.5 L 39.421875 -70.59375 L 33.203125 -66.390625 L 56.859375 -24.796875 C 57.359375 -25.984375 57.882812 -27.703125 58.4375 -29.953125 C 58.988281 -32.203125 59.519531 -34.488281 60.03125 -36.8125 C 60.539062 -39.144531 60.878906 -40.945312 61.046875 -42.21875 C 61.804688 -47.644531 62.0625 -52.457031 61.8125 -56.65625 C 61.5625 -60.851562 60.691406 -64.203125 59.203125 -66.703125 C 57.722656 -69.210938 55.367188 -70.550781 52.140625 -70.71875 Z M 52.140625 -72.5 "/></g></g></g><g fill="#ffffff" fill-opacity="1"><g transform="translate(435.096499, 203.14257)"><g><path d="M 65.125 -50.875 C 65.125 -50.53125 65.015625 -50.101562 64.796875 -49.59375 C 64.585938 -49.09375 64.269531 -48.753906 63.84375 -48.578125 C 63.164062 -48.410156 61.742188 -47.753906 59.578125 -46.609375 C 57.421875 -45.460938 54.816406 -44.0625 51.765625 -42.40625 C 48.710938 -40.757812 45.59375 -39.085938 42.40625 -37.390625 C 39.226562 -35.691406 36.238281 -34.207031 33.4375 -32.9375 C 30.644531 -31.664062 28.445312 -30.816406 26.84375 -30.390625 C 27.769531 -24.960938 29.609375 -20.9375 32.359375 -18.3125 C 35.117188 -15.6875 38.238281 -14.242188 41.71875 -13.984375 C 45.195312 -13.734375 48.585938 -14.410156 51.890625 -16.015625 C 55.203125 -17.628906 57.914062 -19.921875 60.03125 -22.890625 L 61.5625 -22.25 C 59.78125 -16.238281 57.109375 -11.472656 53.546875 -7.953125 C 49.984375 -4.429688 45.972656 -2.078125 41.515625 -0.890625 C 37.066406 0.296875 32.597656 0.40625 28.109375 -0.5625 C 23.617188 -1.539062 19.441406 -3.554688 15.578125 -6.609375 C 11.722656 -9.660156 8.609375 -13.664062 6.234375 -18.625 C 3.859375 -23.59375 2.671875 -29.425781 2.671875 -36.125 C 2.671875 -43.15625 3.769531 -49.128906 5.96875 -54.046875 C 8.175781 -58.972656 11.019531 -62.875 14.5 -65.75 C 18.144531 -68.894531 22.171875 -71.054688 26.578125 -72.234375 C 30.992188 -73.421875 35.382812 -73.78125 39.75 -73.3125 C 44.113281 -72.851562 48.160156 -71.644531 51.890625 -69.6875 C 55.617188 -67.738281 58.671875 -65.175781 61.046875 -62 C 63.421875 -58.820312 64.78125 -55.113281 65.125 -50.875 Z M 50.109375 -63.46875 C 50.617188 -65.25 50.40625 -66.734375 49.46875 -67.921875 C 48.539062 -69.109375 47.1875 -69.890625 45.40625 -70.265625 C 43.625 -70.648438 41.734375 -70.566406 39.734375 -70.015625 C 37.742188 -69.460938 35.988281 -68.335938 34.46875 -66.640625 C 32.257812 -64.179688 30.328125 -60.578125 28.671875 -55.828125 C 27.023438 -51.085938 26.203125 -45.15625 26.203125 -38.03125 C 26.203125 -37.269531 26.222656 -36.503906 26.265625 -35.734375 C 26.304688 -34.972656 26.367188 -34.253906 26.453125 -33.578125 C 34.503906 -41.628906 40.269531 -48.007812 43.75 -52.71875 C 47.226562 -57.425781 49.347656 -61.007812 50.109375 -63.46875 Z M 50.109375 -63.46875 "/></g></g></g></svg>